<?xml version="1.0"?>
<svg width="144" height="38" xmlns="http://www.w3.org/2000/svg" xmlns:svg="http://www.w3.org/2000/svg">
 <g class="layer">
  <title>Layer 1</title>
  <path clip-rule="evenodd" d="m2.94,15.98c0,-5.51 0,-8.26 1.68,-9.97c1.68,-1.71 4.36,-1.71 9.75,-1.71l2.85,0c5.39,0 8.08,0 9.75,1.71c1.68,1.71 1.68,4.46 1.68,9.97l0,2.92c0,5.51 0,8.26 -1.68,9.97c-1.68,1.71 -4.36,1.71 -9.75,1.71l-2.85,0c-5.39,0 -8.08,0 -9.75,-1.71c-1.68,-1.71 -1.68,-4.46 -1.68,-9.97l0,-2.92zm21.42,-5.11c0,1.21 -0.95,2.19 -2.14,2.19c-1.19,0 -2.14,-0.98 -2.14,-2.19c0,-1.21 0.95,-2.19 2.14,-2.19c1.19,0 2.14,0.98 2.14,2.19zm-5.71,8.03c0,1.61 -1.28,2.93 -2.85,2.93c-1.58,0 -2.85,-1.31 -2.85,-2.93c0,-1.61 1.28,-2.92 2.85,-2.92c1.58,0 2.85,1.31 2.85,2.92zm2.86,0c0,3.23 -2.56,5.84 -5.71,5.84c-3.15,0 -5.71,-2.61 -5.71,-5.84c0,-3.22 2.56,-5.84 5.71,-5.84c3.15,0 5.71,2.62 5.71,5.84z" fill="#007AFF" fill-rule="evenodd" id="svg_2"/>
  <text fill="#000000" font-family="Helvetica" font-size="19" id="svg_3" stroke-width="0" text-anchor="middle" transform="matrix(1 0 0 1 0 0)" x="86.76" xml:space="preserve" y="24.15">ImageScribe</text>
 </g>
</svg>