<?xml version="1.0" encoding="UTF-8"?>
<svg version="1.1" xmlns="http://www.w3.org/2000/svg" width="180" height="180">
<path d="M0 0 C0.94359375 0.71736328 0.94359375 0.71736328 1.90625 1.44921875 C17.22642976 13.60090679 29.13033151 35.39797507 31.76855469 54.66259766 C34.47697354 82.01534253 29.55361227 106.41829565 12 128 C11.52175781 128.6290625 11.04351562 129.258125 10.55078125 129.90625 C-1.60090679 145.22642976 -23.39797507 157.13033151 -42.66259766 159.76855469 C-70.01534253 162.47697354 -94.41829565 157.55361227 -116 140 C-116.94359375 139.28263672 -116.94359375 139.28263672 -117.90625 138.55078125 C-133.22642976 126.39909321 -145.13033151 104.60202493 -147.76855469 85.33740234 C-150.47697354 57.98465747 -145.55361227 33.58170435 -128 12 C-127.52175781 11.3709375 -127.04351562 10.741875 -126.55078125 10.09375 C-114.39909321 -5.22642976 -92.60202493 -17.13033151 -73.33740234 -19.76855469 C-45.98465747 -22.47697354 -21.58170435 -17.55361227 0 0 Z " fill="#FEFEFE" transform="translate(148,20)"/>
<path d="M0 0 C5.71065134 3.58495618 9.84200278 8.59284897 12 15 C13.12215965 22.94370907 12.50614761 30.23417133 8 37 C3.41134973 42.68859307 -1.34287485 46.54943017 -8.8046875 47.46875 C-10.16106383 47.50308446 -11.51824991 47.51283738 -12.875 47.5 C-13.58390381 47.49355469 -14.29280762 47.48710938 -15.02319336 47.48046875 C-22.37845052 47.2231321 -25.90037767 45.06868798 -30.95703125 40.0625 C-37.05256517 33.5076285 -38.53676304 28.29678306 -38.375 19.359375 C-37.61296892 12.53284653 -34.65597008 7.19598938 -29.625 2.5625 C-20.53023894 -4.34169495 -10.19874902 -5.01391013 0 0 Z " fill="#4F4F4F" transform="translate(103,47)"/>
<path d="M0 0 C4.44496055 2.49696987 7.0635749 5.44072469 8.6875 10.3125 C9.22172104 16.28139281 9.22056722 21.24843698 5.6875 26.3125 C1.29436812 30.72963807 -2.41132932 32.46170852 -8.625 32.625 C-13.68728087 32.57157223 -16.45760059 31.79131166 -20.3125 28.3125 C-24.77963525 23.36243121 -25.73807319 19.4741815 -25.65234375 12.94921875 C-24.99926887 7.88225846 -22.53357792 4.2635213 -18.73828125 0.9296875 C-12.83782562 -3.00394959 -6.33699007 -2.88580403 0 0 Z " fill="#FCFCFC" transform="translate(98.3125,53.6875)"/>
<path d="M0 0 C0.57492188 0.38027344 1.14984375 0.76054688 1.7421875 1.15234375 C5.97397205 4.27881144 8.32190562 8.09996442 10 13 C10.29947586 16.23433934 10.44656348 18.10687304 9 21 C7.02 21 5.04 21 3 21 C2.76216797 20.11248047 2.76216797 20.11248047 2.51953125 19.20703125 C0.71406465 13.0923847 -1.19849385 9.11523494 -7.0078125 5.8828125 C-19.33409781 -0.00116342 -32.04739932 -0.76477074 -45.0078125 3.6796875 C-50.42262725 6.06899218 -54.59578794 9.00052661 -57.1484375 14.453125 C-57.89325482 16.62607827 -58.51170724 18.75690511 -59 21 C-60.98 21 -62.96 21 -65 21 C-66.78383003 17.43233994 -65.95847324 13.7675835 -65 10 C-61.16511315 2.39895188 -54.56205017 -2.20637344 -46.80078125 -5.2578125 C-31.08238564 -10.29192352 -13.90804587 -9.43156957 0 0 Z " fill="#505050" transform="translate(118,107)"/>
</svg>
